<svg width="362" height="362" viewBox="0 0 362 362" fill="none" xmlns="http://www.w3.org/2000/svg">
<circle cx="181" cy="181" r="181" fill="#8CA5FF"/>
<path d="M174.768 275.441C166.63 275.441 159.427 274.587 153.161 272.878C146.976 271.088 141.809 268.687 137.658 265.676C129.195 259.572 124.963 251.109 124.963 240.285C124.963 235.24 126.509 231.171 129.602 228.078C132.775 224.986 137.251 223.439 143.029 223.439C143.273 228.648 144.047 233.653 145.349 238.454C146.732 243.256 148.767 247.487 151.452 251.149C154.138 254.812 157.556 257.741 161.706 259.938C165.856 262.136 170.861 263.234 176.721 263.234C187.951 263.234 196.7 260.549 202.966 255.178C209.313 249.725 212.487 241.913 212.487 231.74C212.487 222.788 209.68 215.505 204.064 209.89C201.053 206.96 197.066 204.152 192.102 201.467C187.219 198.7 181.115 195.811 173.791 192.8C166.06 189.626 159.305 186.249 153.527 182.668C147.749 179.006 142.948 174.937 139.123 170.461C131.555 161.835 127.771 150.767 127.771 137.258C127.771 130.096 129.113 123.708 131.799 118.093C134.566 112.478 138.391 107.717 143.273 103.811C153.283 95.9167 166.345 91.9697 182.458 91.9697C189.945 91.9697 196.577 92.7428 202.355 94.2891C208.133 95.8353 213.016 97.9105 217.004 100.515C225.142 105.886 229.211 112.396 229.211 120.046C229.211 125.417 227.421 129.486 223.84 132.253C220.34 134.938 215.58 136.281 209.558 136.281C209.558 130.666 208.581 125.458 206.628 120.656C204.756 115.855 201.745 111.989 197.595 109.06C193.526 106.049 188.155 104.543 181.481 104.543C172.123 104.543 164.676 107.106 159.143 112.233C153.69 117.279 150.964 124.196 150.964 132.985C150.964 142.832 153.812 150.604 159.509 156.301C162.601 159.312 166.589 162.201 171.472 164.968C176.436 167.735 182.539 170.583 189.782 173.513C197.106 176.524 203.617 179.698 209.313 183.034C215.091 186.371 219.974 190.074 223.962 194.143C227.95 198.293 231.001 202.932 233.117 208.059C235.233 213.104 236.291 218.841 236.291 225.271C236.291 240.896 230.716 253.225 219.567 262.258C208.662 271.047 193.729 275.441 174.768 275.441Z" fill="white"/>
</svg>
